{
    "asset" : {
        "generator" : "Khronos glTF Blender I/O v3.4.50",
        "version" : "2.0"
    },
    "scene" : 0,
    "scenes" : [
        {
            "name" : "Scene",
            "nodes" : [
                5
            ]
        }
    ],
    "nodes" : [
        {
            "name" : "NOSE_TIP",
            "rotation" : [
                1.7763568394002505e-15,
                0,
                0,
                1
            ],
            "translation" : [
                0,
                -0.46300026774406433,
                -7.586580276489258
            ]
        },
        {
            "name" : "FOREHEAD_RIGHT",
            "rotation" : [
                0.14623041450977325,
                -0.27242934703826904,
                0.0419309064745903,
                0.9500740766525269
            ],
            "scale" : [
                1,
                0.9999998211860657,
                0.9999999403953552
            ],
            "translation" : [
                3.7089998722076416,
                6.964000225067139,
                -3.980999708175659
            ]
        },
        {
            "name" : "FOREHEAD_LEFT",
            "rotation" : [
                0.14623038470745087,
                0.27242937684059143,
                -0.04193089157342911,
                0.9500740766525269
            ],
            "translation" : [
                -3.7089998722076416,
                6.964010238647461,
                -3.980999708175659
            ]
        },
        {
            "children" : [
                0,
                1,
                2
            ],
            "name" : "root",
            "rotation" : [
                -0.7071068286895752,
                0,
                0,
                0.7071068286895752
            ]
        },
        {
            "mesh" : 0,
            "name" : "facemesh",
            "skin" : 0
        },
        {
            "children" : [
                4,
                3
            ],
            "name" : "asset",
            "rotation" : [
                0.7071068286895752,
                0,
                0,
                0.7071068286895752
            ],
            "scale" : [
                0.009999999776482582,
                0.009999999776482582,
                0.009999999776482582
            ]
        }
    ],
    "materials" : [
        {
            "doubleSided" : true,
            "name" : "lambert1",
            "pbrMetallicRoughness" : {
                "baseColorFactor" : [
                    0.5,
                    0.5,
                    0.5,
                    1
                ],
                "metallicFactor" : 0,
                "roughnessFactor" : 0.5527864098548889
            }
        }
    ],
    "meshes" : [
        {
            "name" : "Mesh",
            "primitives" : [
                {
                    "attributes" : {
                        "POSITION" : 0,
                        "TEXCOORD_0" : 1,
                        "NORMAL" : 2,
                        "JOINTS_0" : 3,
                        "WEIGHTS_0" : 4
                    },
                    "indices" : 5,
                    "material" : 0
                }
            ]
        }
    ],
    "skins" : [
        {
            "inverseBindMatrices" : 6,
            "joints" : [
                3,
                0,
                1,
                2
            ],
            "name" : "asset"
        }
    ],
    "accessors" : [
        {
            "bufferView" : 0,
            "componentType" : 5126,
            "count" : 2694,
            "max" : [
                0.07743094116449356,
                0.08261778205633163,
                0.02435866929590702
            ],
            "min" : [
                -0.07743094861507416,
                -0.09403377026319504,
                -0.07586580514907837
            ],
            "type" : "VEC3"
        },
        {
            "bufferView" : 1,
            "componentType" : 5126,
            "count" : 2694,
            "type" : "VEC2"
        },
        {
            "bufferView" : 2,
            "componentType" : 5126,
            "count" : 2694,
            "type" : "VEC3"
        },
        {
            "bufferView" : 3,
            "componentType" : 5121,
            "count" : 2694,
            "type" : "VEC4"
        },
        {
            "bufferView" : 4,
            "componentType" : 5126,
            "count" : 2694,
            "type" : "VEC4"
        },
        {
            "bufferView" : 5,
            "componentType" : 5123,
            "count" : 2694,
            "type" : "SCALAR"
        },
        {
            "bufferView" : 6,
            "componentType" : 5126,
            "count" : 4,
            "type" : "MAT4"
        }
    ],
    "bufferViews" : [
        {
            "buffer" : 0,
            "byteLength" : 32328,
            "byteOffset" : 0,
            "target" : 34962
        },
        {
            "buffer" : 0,
            "byteLength" : 21552,
            "byteOffset" : 32328,
            "target" : 34962
        },
        {
            "buffer" : 0,
            "byteLength" : 32328,
            "byteOffset" : 53880,
            "target" : 34962
        },
        {
            "buffer" : 0,
            "byteLength" : 10776,
            "byteOffset" : 86208,
            "target" : 34962
        },
        {
            "buffer" : 0,
            "byteLength" : 43104,
            "byteOffset" : 96984,
            "target" : 34962
        },
        {
            "buffer" : 0,
            "byteLength" : 5388,
            "byteOffset" : 140088,
            "target" : 34963
        },
        {
            "buffer" : 0,
            "byteLength" : 256,
            "byteOffset" : 145476
        }
    ],
    "buffers" : [
        {
            "byteLength" : 145732,
            "uri" : "face_mesh.bin"
        }
    ]
}
